# Blender v2.79 (sub 0) OBJ File: ''
# www.blender.org
mtllib edge.mtl
o Cube_Cube.001
v -5.124947 10.550943 7.399255
v -5.961699 10.550943 7.615377
v -6.632721 10.550943 8.220936
v -7.005111 10.550943 9.095995
v -7.005111 10.550943 10.067238
v -6.632721 10.550943 10.942297
v -5.961699 10.550943 11.547855
v -5.124948 10.550943 11.763977
v -4.288196 10.550943 11.547857
v -3.617173 10.550943 10.942297
v -3.244783 10.550943 10.067238
v -3.244783 10.550943 9.095995
v -3.617173 10.550943 8.220936
v -4.288196 10.550943 7.615376
v -5.124947 9.580688 7.399255
v -5.961699 9.580688 7.615377
v -6.632721 9.580688 8.220936
v -7.005111 9.580688 9.095995
v -7.005111 9.580688 10.067238
v -6.632721 9.580688 10.942297
v -5.961699 9.580688 11.547855
v -5.124948 9.580688 11.763977
v -4.288196 9.580688 11.547857
v -3.617173 9.580688 10.942297
v -3.244783 9.580688 10.067238
v -3.244783 9.580688 9.095995
v -3.617173 9.580688 8.220936
v -4.288196 9.580688 7.615376
v -5.124947 10.550943 9.581615
v -5.124947 10.550943 -11.720627
v -5.961699 10.550943 -11.504505
v -6.632721 10.550943 -10.898945
v -7.005111 10.550943 -10.023886
v -7.005111 10.550943 -9.052643
v -6.632721 10.550943 -8.177584
v -5.961699 10.550943 -7.572025
v -5.124948 10.550943 -7.355904
v -4.288196 10.550943 -7.572025
v -3.617173 10.550943 -8.177584
v -3.244783 10.550943 -9.052643
v -3.244783 10.550943 -10.023888
v -3.617173 10.550943 -10.898945
v -4.288196 10.550943 -11.504505
v -5.124947 9.580688 -11.720627
v -5.961699 9.580688 -11.504505
v -6.632721 9.580688 -10.898945
v -7.005111 9.580688 -10.023886
v -7.005111 9.580688 -9.052643
v -6.632721 9.580688 -8.177584
v -5.961699 9.580688 -7.572025
v -5.124948 9.580688 -7.355904
v -4.288196 9.580688 -7.572025
v -3.617173 9.580688 -8.177584
v -3.244783 9.580688 -9.052643
v -3.244783 9.580688 -10.023888
v -3.617173 9.580688 -10.898945
v -4.288196 9.580688 -11.504505
v -5.124947 10.550943 -9.538265
v -7.889504 10.550943 5.084143
v -8.805002 10.550943 2.552909
v -9.151196 10.550943 0.021676
v -8.805002 10.550943 -2.509558
v -7.889504 10.550943 -5.040792
v -7.889504 9.580688 -5.040791
v -8.805002 9.580688 -2.509558
v -9.151196 9.580688 0.021677
v -8.805002 9.580688 2.552910
v -7.889504 9.580688 5.084143
v -7.052752 9.580688 -4.896709
v -7.968250 9.580688 -2.437517
v -8.314445 9.580688 0.021676
v -7.968250 9.580688 2.480869
v -7.052752 9.580688 4.940062
v -7.052752 10.550943 -4.896709
v -7.968250 10.550943 -2.437517
v -8.314445 10.550943 0.021676
v -7.968250 10.550943 2.480869
v -7.052752 10.550943 4.940062
vn -0.2501 0.0000 0.9682
vn 0.2501 0.0000 0.9682
vn 0.6700 0.0000 0.7424
vn -0.6700 0.0000 -0.7424
vn 0.9201 0.0000 0.3916
vn -0.9201 0.0000 -0.3916
vn 1.0000 0.0000 0.0000
vn -1.0000 0.0000 0.0000
vn 0.9201 0.0000 -0.3916
vn -0.9201 0.0000 0.3916
vn 0.6700 0.0000 -0.7424
vn -0.6700 0.0000 0.7424
vn 0.2501 0.0000 -0.9682
vn 0.0000 1.0000 -0.0000
vn -0.7955 -0.0000 -0.6059
vn -0.2501 0.0000 -0.9682
vn 0.7870 0.0000 0.6169
vn 0.7870 0.0000 -0.6169
vn 0.9372 0.0000 -0.3489
vn 0.9902 0.0000 -0.1394
vn 0.9902 0.0000 0.1394
vn 0.9372 0.0000 0.3489
vn -0.7955 0.0000 0.6059
vn -0.9404 0.0000 0.3401
vn -0.9908 0.0000 0.1355
vn -0.9908 -0.0000 -0.1355
vn -0.9404 0.0000 -0.3401
usemtl None
s off
f 8//1 7//1 21//1 22//1
f 9//2 8//2 22//2 23//2
f 10//3 9//3 23//3 24//3
f 3//4 2//4 16//4 17//4
f 11//5 10//5 24//5 25//5
f 4//6 3//6 17//6 18//6
f 12//7 11//7 25//7 26//7
f 5//8 4//8 18//8 19//8
f 13//9 12//9 26//9 27//9
f 6//10 5//10 19//10 20//10
f 14//11 13//11 27//11 28//11
f 7//12 6//12 20//12 21//12
f 1//13 14//13 28//13 15//13
f 2//14 3//14 29//14
f 1//14 29//14 14//14
f 29//14 1//14 2//14
f 9//14 29//14 8//14
f 29//14 7//14 8//14
f 14//14 29//14 13//14
f 13//14 29//14 12//14
f 29//14 6//14 7//14
f 29//14 4//14 5//14
f 10//14 29//14 9//14
f 4//14 29//14 3//14
f 11//14 29//14 10//14
f 5//14 6//14 29//14
f 12//14 29//14 11//14
f 63//15 36//15 50//15 64//15
f 38//2 37//2 51//2 52//2
f 31//16 30//16 44//16 45//16
f 39//3 38//3 52//3 53//3
f 32//4 31//4 45//4 46//4
f 40//5 39//5 53//5 54//5
f 33//6 32//6 46//6 47//6
f 41//7 40//7 54//7 55//7
f 34//8 33//8 47//8 48//8
f 42//9 41//9 55//9 56//9
f 35//10 34//10 48//10 49//10
f 43//11 42//11 56//11 57//11
f 36//12 35//12 49//12 50//12
f 30//13 43//13 57//13 44//13
f 31//14 32//14 58//14
f 30//14 58//14 43//14
f 58//14 30//14 31//14
f 38//14 58//14 37//14
f 58//14 36//14 37//14
f 43//14 58//14 42//14
f 42//14 58//14 41//14
f 58//14 35//14 36//14
f 58//14 33//14 34//14
f 39//14 58//14 38//14
f 33//14 58//14 32//14
f 40//14 58//14 39//14
f 34//14 35//14 58//14
f 41//14 58//14 40//14
f 69//17 51//17 37//17 74//17
f 74//14 37//14 36//14 63//14
f 1//14 78//14 59//14 2//14
f 78//14 77//14 60//14 59//14
f 77//14 76//14 61//14 60//14
f 76//14 75//14 62//14 61//14
f 75//14 74//14 63//14 62//14
f 15//18 73//18 78//18 1//18
f 73//19 72//19 77//19 78//19
f 72//20 71//20 76//20 77//20
f 71//21 70//21 75//21 76//21
f 70//22 69//22 74//22 75//22
f 2//23 59//23 68//23 16//23
f 59//24 60//24 67//24 68//24
f 60//25 61//25 66//25 67//25
f 61//26 62//26 65//26 66//26
f 62//27 63//27 64//27 65//27
